<?xml version="1.0" standalone="no"?>
<!DOCTYPE svg PUBLIC "-//W3C//DTD SVG 20010904//EN"
 "http://www.w3.org/TR/2001/REC-SVG-20010904/DTD/svg10.dtd">
<svg version="1.0" xmlns="http://www.w3.org/2000/svg"
 width="310.000000pt" height="163.000000pt" viewBox="0 0 310.000000 163.000000"
 preserveAspectRatio="xMidYMid meet">

<g transform="translate(0.000000,163.000000) scale(0.100000,-0.100000)"
fill="#000000" stroke="none">
<path d="M1365 1621 c-172 -18 -308 -56 -403 -114 -70 -42 -104 -87 -110 -147
-4 -44 -2 -49 27 -69 116 -83 363 -132 666 -132 251 -1 443 28 585 85 94 38
120 61 120 103 0 116 -148 211 -399 258 -100 18 -373 27 -486 16z"/>
<path d="M852 1077 l3 -131 40 -27 c134 -92 529 -148 840 -120 218 20 407 70
482 127 l33 25 0 129 0 129 -72 -34 c-156 -71 -336 -99 -628 -99 -292 0 -472
28 -628 100 l-73 33 3 -132z"/>
<path d="M850 711 l0 -131 48 -31 c95 -60 276 -103 513 -120 302 -22 651 31
792 120 l47 31 0 131 c0 72 -3 129 -7 127 -187 -96 -381 -132 -698 -132 -314
0 -501 36 -687 132 -5 2 -8 -55 -8 -127z"/>
<path d="M850 363 c0 -136 11 -168 77 -218 250 -191 1010 -188 1253 5 59 47
70 80 70 212 l0 114 -67 -33 c-77 -37 -235 -77 -368 -92 -130 -16 -441 -13
-562 4 -143 20 -257 51 -335 90 l-68 33 0 -115z"/>
</g>
</svg>
